<svg viewBox="0 0 19 17" fill="none" xmlns="http://www.w3.org/2000/svg">
<path d="M0.415607 8.33666L4.5539 9.87975L6.16711 15.0701C6.23725 15.4208 6.6581 15.491 6.93866 15.2805L9.25328 13.3868C9.4637 13.1763 9.81441 13.1763 10.095 13.3868L14.2332 16.4028C14.5138 16.6132 14.9346 16.4729 15.0048 16.1222L18.0909 1.39278C18.1611 1.04208 17.8104 0.691379 17.4597 0.831659L0.415607 7.42484C-0.00523473 7.56512 -0.00523473 8.19638 0.415607 8.33666ZM5.9567 9.1082L14.0929 4.12825C14.2332 4.05811 14.3735 4.26853 14.2332 4.33867L7.56992 10.5811C7.3595 10.7916 7.14907 11.0721 7.14907 11.4228L6.93866 13.1062C6.93866 13.3166 6.58795 13.3868 6.51781 13.1062L5.67612 10.02C5.4657 9.66932 5.606 9.24848 5.9567 9.1082Z" fill="#002f7d"/>
</svg>
