<svg viewBox="0 0 19 12" fill="none" xmlns="http://www.w3.org/2000/svg">
<path d="M18.8255 10.6038C18.8255 10.529 18.7508 10.529 18.7508 10.4543C18.4519 9.85656 17.7794 9.10936 16.8828 8.28743C16.4345 7.91383 16.2103 7.61494 16.0609 7.4655C15.8367 7.16662 15.8367 6.94246 15.9114 6.64358C15.9862 6.41942 16.285 6.04581 16.8081 5.37332C17.107 4.99972 17.2564 4.77556 17.4806 4.5514C18.6014 3.05699 19.1244 2.08561 18.975 1.63729L18.9003 1.56257C18.8255 1.48785 18.7508 1.41314 18.6014 1.41314C18.4519 1.33842 18.2278 1.33842 18.0036 1.41314H15.1642C15.0895 1.41314 15.0895 1.41314 14.9401 1.41314C14.8653 1.41314 14.7906 1.41314 14.7906 1.41314H14.7159H14.6412L14.5665 1.48785C14.4917 1.56257 14.4917 1.56257 14.4917 1.63729C14.1928 2.45922 13.8192 3.1317 13.4456 3.87891C13.2215 4.25251 12.9973 4.62612 12.7732 4.925C12.549 5.22389 12.3996 5.44804 12.2501 5.59748C12.1007 5.74693 11.9512 5.82165 11.8765 5.97109C11.8018 6.04581 11.6524 6.12053 11.6524 6.04581C11.5776 6.04581 11.5029 6.04581 11.5029 5.97109C11.4282 5.89637 11.3535 5.82164 11.2787 5.74692C11.204 5.6722 11.204 5.52276 11.1293 5.37332C11.1293 5.22388 11.1293 5.07444 11.1293 4.99972C11.1293 4.925 11.1293 4.70084 11.1293 4.5514C11.1293 4.32724 11.1293 4.17779 11.1293 4.10307C11.1293 3.87891 11.1293 3.58003 11.1293 3.28115C11.1293 2.98227 11.1293 2.7581 11.1293 2.60866C11.1293 2.45922 11.1293 2.23506 11.1293 2.08562C11.1293 1.86146 11.1293 1.71201 11.1293 1.63729C11.1293 1.56257 11.0546 1.41313 11.0546 1.33841C10.9799 1.26369 10.9051 1.18897 10.8304 1.11425C10.7557 1.03953 10.6063 1.03953 10.5315 0.964808C10.1579 0.890087 9.70963 0.815369 9.18658 0.815369C7.99105 0.815369 7.16912 0.890092 6.87024 1.03953C6.7208 1.11425 6.57135 1.18897 6.49663 1.33841C6.34719 1.48785 6.34719 1.56257 6.42191 1.56257C6.79551 1.6373 7.0944 1.78673 7.24384 2.01089L7.31856 2.16034C7.39329 2.23506 7.39327 2.3845 7.46799 2.60866C7.54271 2.83282 7.54272 3.05698 7.54272 3.35587C7.54272 3.80419 7.54272 4.25252 7.54272 4.5514C7.54272 4.925 7.46799 5.14916 7.46799 5.37332C7.46799 5.59748 7.39329 5.74693 7.31856 5.82165C7.24384 5.97109 7.24383 6.04581 7.16911 6.04581C7.16911 6.04581 7.16911 6.12053 7.09439 6.12053C7.01967 6.12053 6.94495 6.19525 6.79551 6.19525C6.72079 6.19525 6.57135 6.12053 6.49663 6.04581C6.34719 5.97109 6.19775 5.82165 6.12303 5.67221C5.97359 5.52277 5.82414 5.2986 5.6747 4.99972C5.52526 4.70083 5.30109 4.40196 5.15165 3.95363L5.00222 3.65475C4.9275 3.50531 4.77806 3.20643 4.62862 2.83282C4.47918 2.45922 4.32973 2.16034 4.18029 1.78674C4.10557 1.6373 4.03086 1.56257 3.95614 1.48785H3.88141C3.88141 1.48785 3.80668 1.41314 3.73196 1.41314C3.65724 1.41314 3.58253 1.33841 3.50781 1.33841H0.81786C0.518978 1.33841 0.369539 1.41313 0.294818 1.48785L0.220093 1.56257C0.220093 1.56257 0.220093 1.63729 0.220093 1.71201C0.220093 1.78673 0.220097 1.86145 0.294818 2.01089C0.668421 2.90754 1.11674 3.80419 1.56507 4.70084C2.01339 5.52277 2.46172 6.26997 2.7606 6.79302C3.1342 7.31606 3.43308 7.83911 3.80669 8.28743C4.18029 8.73576 4.40445 9.03464 4.47917 9.18408C4.62861 9.33352 4.70332 9.40823 4.77804 9.48295L5.00222 9.70712C5.15166 9.85656 5.37582 10.0807 5.6747 10.3049C5.97358 10.529 6.34718 10.7532 6.72079 10.9774C7.09439 11.2015 7.54272 11.351 7.99105 11.5004C8.51409 11.6499 8.96241 11.7246 9.41073 11.6499H10.5315C10.7557 11.6499 10.9052 11.5751 11.0546 11.4257L11.1293 11.351C11.1293 11.2763 11.204 11.2763 11.204 11.2015C11.204 11.1268 11.204 11.0521 11.204 10.9027C11.204 10.6038 11.204 10.3796 11.2787 10.1554C11.3535 9.93129 11.3535 9.78185 11.4282 9.63241C11.5029 9.48296 11.5776 9.40824 11.6524 9.33352C11.7271 9.2588 11.8018 9.18408 11.8018 9.18408H11.8765C12.0259 9.10936 12.2501 9.18408 12.3996 9.33352C12.6237 9.48296 12.8479 9.70712 12.9973 9.93128C13.1468 10.1554 13.3709 10.3796 13.6698 10.6785C13.9687 10.9774 14.1929 11.2015 14.3423 11.2763L14.5665 11.4257C14.7159 11.5004 14.8653 11.5751 15.0895 11.6499C15.3137 11.7246 15.4631 11.7246 15.6125 11.7246L18.1531 11.6499C18.3772 11.6499 18.6014 11.5751 18.7508 11.5004C18.9003 11.4257 18.975 11.351 18.975 11.2015C18.975 11.1268 18.975 10.9774 18.975 10.9027C18.8255 10.7532 18.8255 10.6785 18.8255 10.6038Z" fill="#002f7d"/>
</svg>
