<svg viewBox="0 0 17 17" fill="none" xmlns="http://www.w3.org/2000/svg">
<path d="M13.9227 2.74191C12.5104 1.4473 10.8038 0.799988 8.68537 0.799988C6.50806 0.799988 4.62498 1.50614 3.09498 2.9773C1.56498 4.44845 0.799988 6.27268 0.799988 8.44999C0.799988 10.5685 1.50615 12.3338 2.9773 13.8638C4.44846 15.3938 6.39038 16.1 8.92077 16.1C10.3919 16.1 11.8631 15.8058 13.3342 15.1585C13.805 14.9819 14.0404 14.3935 13.8638 13.9227C13.6873 13.4519 13.0988 13.2165 12.6281 13.3931C11.3923 13.9227 10.1565 14.2169 8.9796 14.2169C7.09652 14.2169 5.62537 13.6285 4.56614 12.4515C3.50691 11.2746 2.9773 9.92114 2.9773 8.39114C2.9773 6.6846 3.56576 5.27229 4.62499 4.15422C5.74306 3.03614 7.09653 2.44768 8.74422 2.44768C10.2154 2.44768 11.51 2.91845 12.5692 3.85999C13.6285 4.80153 14.0992 5.97845 14.0992 7.39076C14.0992 8.3323 13.8638 9.15614 13.3931 9.80345C12.9223 10.4508 12.4515 10.745 11.9219 10.745C11.6277 10.745 11.51 10.6273 11.51 10.2742C11.51 10.0388 11.51 9.7446 11.5688 9.45037L12.1573 4.68383H10.1565L10.0388 5.1546C9.50923 4.74268 8.9796 4.5073 8.39114 4.5073C7.4496 4.5073 6.62576 4.91922 5.91961 5.68422C5.21346 6.44922 4.91922 7.4496 4.91922 8.62653C4.91922 9.80345 5.21345 10.745 5.86076 11.51C6.44922 12.2161 7.21423 12.5692 8.03808 12.5692C8.80308 12.5692 9.45038 12.275 9.97999 11.6277C10.3919 12.2161 10.9804 12.5692 11.8042 12.5692C12.9811 12.5692 13.9815 12.0396 14.8642 11.0392C15.7469 10.0388 16.1588 8.80307 16.1588 7.33191C15.9823 5.56653 15.2762 3.97768 13.9227 2.74191ZM9.27383 9.92114C8.92075 10.3919 8.50884 10.6273 7.97923 10.6273C7.62615 10.6273 7.39077 10.4508 7.15538 10.0977C6.92 9.7446 6.86115 9.33268 6.86115 8.80307C6.86115 8.15576 6.97883 7.62614 7.27307 7.27307C7.5673 6.86114 7.92038 6.6846 8.33231 6.6846C8.68538 6.6846 9.03845 6.8023 9.33268 7.15537C9.62691 7.4496 9.74461 7.86153 9.74461 8.3323C9.80346 8.92076 9.62691 9.45037 9.27383 9.92114Z" fill="#002f7d"/>
</svg>
